<svg xmlns="http://www.w3.org/2000/svg" width="30" height="30" viewBox="0 0 30 30">
  <g id="Group_7611" data-name="Group 7611" transform="translate(-329 -53)" opacity="0">
    <rect id="Rectangle_44485" data-name="Rectangle 44485" width="30" height="30" rx="6" transform="translate(329 53)" fill="none"/>
    <g id="Group_838" data-name="Group 838" transform="translate(-1.466 -1.621)">
      <path id="icons8-notification" d="M14.868,4.009a7.824,7.824,0,0,0-7.322,7.879v3.727L6.187,18.35l-.007.015A1.818,1.818,0,0,0,7.8,20.924h4.358a3.077,3.077,0,0,0,6.154,0h4.357A1.818,1.818,0,0,0,24.3,18.365l-.007-.015-1.359-2.734V11.693A7.706,7.706,0,0,0,14.868,4.009Zm6.525,7.683C21.392,15.914,21.392,8.186,21.392,11.693ZM13.7,20.924h3.077a1.538,1.538,0,1,1-3.077,0Z" transform="translate(330.451 56.621)" fill="#fff"/>
      <circle id="Ellipse_39513" data-name="Ellipse 39513" cx="3.5" cy="3.5" r="3.5" transform="translate(347.466 58.621)" fill="#ff4b4b"/>
      <path id="Path_4325" data-name="Path 4325" d="M4.376-.832V0H.584V-.76L2.5-2.824A3.158,3.158,0,0,0,3-3.5a1.345,1.345,0,0,0,.156-.612.736.736,0,0,0-.22-.58.94.94,0,0,0-.644-.2A2.523,2.523,0,0,0,.76-4.3L.416-5.056a2.526,2.526,0,0,1,.86-.476,3.22,3.22,0,0,1,1.052-.18A2.026,2.026,0,0,1,3.672-5.3a1.386,1.386,0,0,1,.5,1.12,2.068,2.068,0,0,1-.208.916,4.059,4.059,0,0,1-.7.956L1.872-.832Z" transform="translate(351.07 64.478)" fill="none"/>
    </g>
  </g>
</svg>
