<svg xmlns="http://www.w3.org/2000/svg" width="24.018" height="26" viewBox="0 0 24.018 26">
  <g id="icons8-parking-and-3rd-floor" transform="translate(-8.625 -2)">
    <path id="Path_93444" data-name="Path 93444" d="M32.064,10.976,21.532,4,11,10.976V27.463a1.477,1.477,0,0,0,1.62,1.268H30.444a1.477,1.477,0,0,0,1.62-1.268Z" transform="translate(-0.869 -0.732)" fill="#ff8b39"/>
    <path id="Path_93445" data-name="Path 93445" d="M32.326,10.2,21.332,2.235a1.347,1.347,0,0,0-1.521,0L8.817,10.2a.411.411,0,0,0-.037.67l.939.817a.668.668,0,0,0,.8.031L20.571,4.541l10.056,7.172a.67.67,0,0,0,.8-.031l.939-.817A.412.412,0,0,0,32.326,10.2Z" fill="#fc6900"/>
    <path id="Path_93446" data-name="Path 93446" d="M31.866,26.268H9.788A.724.724,0,0,1,9,25.634H9A.724.724,0,0,1,9.788,25H31.866a.724.724,0,0,1,.788.634h0A.724.724,0,0,1,31.866,26.268Z" transform="translate(-0.137 -8.415)" fill="#ffede0" stroke="#fc6900" stroke-width="0.25"/>
    <path id="Path_93449" data-name="Path 93449" d="M21.15,18.012v-.933a2.122,2.122,0,0,0,1.352.475,1.575,1.575,0,0,0,.978-.278.9.9,0,0,0,.366-.753q0-1.044-1.6-1.044h-.475v-.8h.453q1.416,0,1.416-.984,0-.907-1.1-.907a1.812,1.812,0,0,0-1.16.441v-.881A2.971,2.971,0,0,1,22.857,12a1.978,1.978,0,0,1,1.31.411,1.31,1.31,0,0,1,.492,1.053,1.5,1.5,0,0,1-1.232,1.557v.017a1.615,1.615,0,0,1,1.048.464,1.384,1.384,0,0,1,.385,1,1.638,1.638,0,0,1-.62,1.333,2.5,2.5,0,0,1-1.635.507A2.79,2.79,0,0,1,21.15,18.012Z" transform="translate(-2.593 -3.659)" fill="#fff"/>
    <g id="Group_96951" data-name="Group 96951" transform="translate(17.828 19.122)">
      <path id="Path_93452" data-name="Path 93452" d="M22.048,34.042v2.012a.289.289,0,0,1-.289.289h-.472A.29.29,0,0,1,21,36.053V30.288A.289.289,0,0,1,21.289,30h1.635a2.547,2.547,0,0,1,1.694.509,1.774,1.774,0,0,1,.6,1.433,1.98,1.98,0,0,1-.628,1.512,2.385,2.385,0,0,1-1.7.588h-.845Zm0-3.175v2.317h.681a1.507,1.507,0,0,0,1.03-.314,1.121,1.121,0,0,0,.354-.885q0-1.119-1.3-1.119Z" transform="translate(-20.366 -29.366)" fill="#fff"/>
    </g>
  </g>
</svg>
