<svg xmlns="http://www.w3.org/2000/svg" xmlns:xlink="http://www.w3.org/1999/xlink" width="24" height="11.247" viewBox="0 0 24 11.247">
  <defs>
    <linearGradient id="linear-gradient" x1="-0.045" y1="-0.316" x2="0.662" y2="1.366" gradientUnits="objectBoundingBox">
      <stop offset="0" stop-color="#f5b967"/>
      <stop offset="1" stop-color="#eba84b"/>
    </linearGradient>
    <linearGradient id="linear-gradient-2" x1="0.856" y1="1.114" x2="0.144" y2="-0.16" gradientUnits="objectBoundingBox">
      <stop offset="0" stop-color="#ffda94"/>
      <stop offset="1" stop-color="#fff0ce"/>
    </linearGradient>
    <linearGradient id="linear-gradient-3" x1="0.5" y1="-3.917" x2="0.5" y2="2.487" gradientUnits="objectBoundingBox">
      <stop offset="0" stop-color="#c26715"/>
      <stop offset="0.346" stop-color="#be6015"/>
      <stop offset="0.686" stop-color="#b54e16"/>
      <stop offset="0.979" stop-color="#ad3f16"/>
    </linearGradient>
  </defs>
  <g id="Leads" transform="translate(-0.113 -6.376)">
    <g id="icons8-reservation" transform="translate(-0.104 -1.246)">
      <path id="Path_96433" data-name="Path 96433" d="M.725,18.823l9.2.013L4.072,7.622.248,18.139a.509.509,0,0,0,.478.683Z" fill="url(#linear-gradient)"/>
      <path id="Path_96434" data-name="Path 96434" d="M23.707,18.869l-14.85-.033a1.018,1.018,0,0,1-.955-.671L4.072,7.622l16.29.014,3.824,10.551a.509.509,0,0,1-.48.683Z" fill="url(#linear-gradient-2)"/>
      <path id="Path_96435" data-name="Path 96435" d="M19.6,14.254H9.94a.509.509,0,0,1-.483-.348l-.281-.844a.255.255,0,0,1,.241-.335h9.658a.509.509,0,0,1,.483.348l.281.844a.255.255,0,0,1-.241.335Z" fill="url(#linear-gradient-3)"/>
    </g>
  </g>
</svg>
